<?xml version="1.0" encoding="UTF-8" standalone="no"?>
<!DOCTYPE svg PUBLIC "-//W3C//DTD SVG 1.1//EN"
 "http://www.w3.org/Graphics/SVG/1.1/DTD/svg11.dtd">
<!-- Generated by graphviz version 2.40.1 (20161225.0304)
 -->
<!-- Title: dependencies Pages: 1 -->
<svg width="763pt" height="211pt"
 viewBox="0.00 0.00 763.00 211.00" xmlns="http://www.w3.org/2000/svg" xmlns:xlink="http://www.w3.org/1999/xlink">
<g id="graph0" class="graph" transform="scale(1 1) rotate(0) translate(4 207)">
<title>dependencies</title>
<polygon fill="#ffffff" stroke="transparent" points="-4,4 -4,-207 759,-207 759,4 -4,4"/>
<text text-anchor="start" x="356.5091" y="-42.4" font-family="sans-serif" font-weight="bold" font-size="14.00" fill="#000000">Legend</text>
<polygon fill="#ffffb3" stroke="transparent" points="143.5,-10 143.5,-30 163.5,-30 163.5,-10 143.5,-10"/>
<text text-anchor="start" x="167.129" y="-15.4" font-family="sans-serif" font-size="14.00" fill="#000000"> &#160;Declarations</text>
<polygon fill="#8dd3c7" stroke="transparent" points="256.5,-10 256.5,-30 276.5,-30 276.5,-10 256.5,-10"/>
<text text-anchor="start" x="280.2251" y="-15.4" font-family="sans-serif" font-size="14.00" fill="#000000"> &#160;Module</text>
<polygon fill="#80b1d3" stroke="transparent" points="342.5,-10 342.5,-30 362.5,-30 362.5,-10 342.5,-10"/>
<text text-anchor="start" x="366.2812" y="-15.4" font-family="sans-serif" font-size="14.00" fill="#000000"> &#160;Bootstrap</text>
<polygon fill="#fdb462" stroke="transparent" points="439.5,-10 439.5,-30 459.5,-30 459.5,-10 439.5,-10"/>
<text text-anchor="start" x="463.1732" y="-15.4" font-family="sans-serif" font-size="14.00" fill="#000000"> &#160;Providers</text>
<polygon fill="#fb8072" stroke="transparent" points="535.5,-10 535.5,-30 555.5,-30 555.5,-10 535.5,-10"/>
<text text-anchor="start" x="559.2258" y="-15.4" font-family="sans-serif" font-size="14.00" fill="#000000"> &#160;Exports</text>
<g id="clust1" class="cluster">
<title>cluster_employeeModule</title>
<polygon fill="none" stroke="#000000" stroke-dasharray="1,5" points="8,-70 8,-195 747,-195 747,-70 8,-70"/>
</g>
<g id="clust2" class="cluster">
<title>cluster_employeeModule_declarations</title>
<polygon fill="none" stroke="#000000" points="585,-78 585,-130 739,-130 739,-78 585,-78"/>
</g>
<g id="clust4" class="cluster">
<title>cluster_employeeModule_imports</title>
<polygon fill="none" stroke="#000000" points="401,-78 401,-130 577,-130 577,-78 401,-78"/>
</g>
<g id="clust7" class="cluster">
<title>cluster_employeeModule_providers</title>
<polygon fill="none" stroke="#000000" points="16,-78 16,-130 393,-130 393,-78 16,-78"/>
</g>
<!-- EmployeeComponent -->
<g id="node1" class="node">
<title>EmployeeComponent</title>
<polygon fill="#ffffb3" stroke="#000000" points="731.0954,-122 592.9046,-122 592.9046,-86 731.0954,-86 731.0954,-122"/>
<text text-anchor="middle" x="662" y="-99.8" font-family="Times,serif" font-size="14.00" fill="#000000">EmployeeComponent</text>
</g>
<!-- employeeModule -->
<g id="node2" class="node">
<title>employeeModule</title>
<polygon fill="#8dd3c7" stroke="#000000" points="452.9748,-187 449.9748,-191 428.9748,-191 425.9748,-187 339.0252,-187 339.0252,-151 452.9748,-151 452.9748,-187"/>
<text text-anchor="middle" x="396" y="-164.8" font-family="Times,serif" font-size="14.00" fill="#000000">employeeModule</text>
</g>
<!-- EmployeeComponent&#45;&gt;employeeModule -->
<g id="edge1" class="edge">
<title>EmployeeComponent&#45;&gt;employeeModule</title>
<path fill="none" stroke="#000000" d="M662,-122.1061C662,-141.3391 662,-169 662,-169 662,-169 463.0637,-169 463.0637,-169"/>
<polygon fill="#000000" stroke="#000000" points="463.0637,-165.5001 453.0637,-169 463.0636,-172.5001 463.0637,-165.5001"/>
</g>
<!-- employeeRoutingModule -->
<g id="node3" class="node">
<title>employeeRoutingModule</title>
<polygon fill="#8dd3c7" stroke="#000000" points="568.5926,-122 565.5926,-126 544.5926,-126 541.5926,-122 409.4074,-122 409.4074,-86 568.5926,-86 568.5926,-122"/>
<text text-anchor="middle" x="489" y="-99.8" font-family="Times,serif" font-size="14.00" fill="#000000">employeeRoutingModule</text>
</g>
<!-- employeeRoutingModule&#45;&gt;employeeModule -->
<g id="edge2" class="edge">
<title>employeeRoutingModule&#45;&gt;employeeModule</title>
<path fill="none" stroke="#000000" d="M431.2206,-122.1061C431.2206,-122.1061 431.2206,-140.991 431.2206,-140.991"/>
<polygon fill="#000000" stroke="#000000" points="427.7206,-140.9909 431.2206,-150.991 434.7206,-140.991 427.7206,-140.9909"/>
</g>
<!-- HeaderInterceptor -->
<g id="node4" class="node">
<title>HeaderInterceptor</title>
<ellipse fill="#fdb462" stroke="#000000" cx="304" cy="-104" rx="81.0378" ry="18"/>
<text text-anchor="middle" x="304" y="-99.8" font-family="Times,serif" font-size="14.00" fill="#000000">HeaderInterceptor</text>
</g>
<!-- HeaderInterceptor&#45;&gt;employeeModule -->
<g id="edge3" class="edge">
<title>HeaderInterceptor&#45;&gt;employeeModule</title>
<path fill="none" stroke="#000000" d="M362.1406,-116.8419C362.1406,-116.8419 362.1406,-140.5231 362.1406,-140.5231"/>
<polygon fill="#000000" stroke="#000000" points="358.6407,-140.523 362.1406,-150.5231 365.6407,-140.5231 358.6407,-140.523"/>
</g>
<!-- ResponseInterceptor -->
<g id="node5" class="node">
<title>ResponseInterceptor</title>
<ellipse fill="#fdb462" stroke="#000000" cx="114" cy="-104" rx="90.3082" ry="18"/>
<text text-anchor="middle" x="114" y="-99.8" font-family="Times,serif" font-size="14.00" fill="#000000">ResponseInterceptor</text>
</g>
<!-- ResponseInterceptor&#45;&gt;employeeModule -->
<g id="edge4" class="edge">
<title>ResponseInterceptor&#45;&gt;employeeModule</title>
<path fill="none" stroke="#000000" d="M114,-122.1061C114,-141.3391 114,-169 114,-169 114,-169 328.9331,-169 328.9331,-169"/>
<polygon fill="#000000" stroke="#000000" points="328.9331,-172.5001 338.9331,-169 328.9331,-165.5001 328.9331,-172.5001"/>
</g>
</g>
</svg>
