<?xml version="1.0" encoding="UTF-8" standalone="no"?>
<!DOCTYPE svg PUBLIC "-//W3C//DTD SVG 1.1//EN"
 "http://www.w3.org/Graphics/SVG/1.1/DTD/svg11.dtd">
<!-- Generated by graphviz version 2.40.1 (20161225.0304)
 -->
<!-- Title: dependencies Pages: 1 -->
<svg width="1165pt" height="284pt"
 viewBox="0.00 0.00 1165.00 284.00" xmlns="http://www.w3.org/2000/svg" xmlns:xlink="http://www.w3.org/1999/xlink">
<g id="graph0" class="graph" transform="scale(1 1) rotate(0) translate(4 280)">
<title>dependencies</title>
<polygon fill="#ffffff" stroke="transparent" points="-4,4 -4,-280 1161,-280 1161,4 -4,4"/>
<text text-anchor="start" x="557.5091" y="-42.4" font-family="sans-serif" font-weight="bold" font-size="14.00" fill="#000000">Legend</text>
<polygon fill="#ffffb3" stroke="transparent" points="344.5,-10 344.5,-30 364.5,-30 364.5,-10 344.5,-10"/>
<text text-anchor="start" x="368.129" y="-15.4" font-family="sans-serif" font-size="14.00" fill="#000000"> &#160;Declarations</text>
<polygon fill="#8dd3c7" stroke="transparent" points="457.5,-10 457.5,-30 477.5,-30 477.5,-10 457.5,-10"/>
<text text-anchor="start" x="481.2251" y="-15.4" font-family="sans-serif" font-size="14.00" fill="#000000"> &#160;Module</text>
<polygon fill="#80b1d3" stroke="transparent" points="543.5,-10 543.5,-30 563.5,-30 563.5,-10 543.5,-10"/>
<text text-anchor="start" x="567.2812" y="-15.4" font-family="sans-serif" font-size="14.00" fill="#000000"> &#160;Bootstrap</text>
<polygon fill="#fdb462" stroke="transparent" points="640.5,-10 640.5,-30 660.5,-30 660.5,-10 640.5,-10"/>
<text text-anchor="start" x="664.1732" y="-15.4" font-family="sans-serif" font-size="14.00" fill="#000000"> &#160;Providers</text>
<polygon fill="#fb8072" stroke="transparent" points="736.5,-10 736.5,-30 756.5,-30 756.5,-10 736.5,-10"/>
<text text-anchor="start" x="760.2258" y="-15.4" font-family="sans-serif" font-size="14.00" fill="#000000"> &#160;Exports</text>
<g id="clust1" class="cluster">
<title>cluster_AppModule</title>
<polygon fill="none" stroke="#000000" stroke-dasharray="1,5" points="8,-70 8,-268 1149,-268 1149,-70 8,-70"/>
</g>
<g id="clust2" class="cluster">
<title>cluster_AppModule_declarations</title>
<polygon fill="none" stroke="#000000" points="564,-78 564,-130 1141,-130 1141,-78 564,-78"/>
</g>
<g id="clust7" class="cluster">
<title>cluster_AppModule_imports</title>
<polygon fill="none" stroke="#000000" points="412,-78 412,-130 556,-130 556,-78 412,-78"/>
</g>
<g id="clust9" class="cluster">
<title>cluster_AppModule_bootstrap</title>
<polygon fill="none" stroke="#000000" points="559,-208 559,-260 683,-260 683,-208 559,-208"/>
</g>
<g id="clust10" class="cluster">
<title>cluster_AppModule_providers</title>
<polygon fill="none" stroke="#000000" points="16,-78 16,-130 404,-130 404,-78 16,-78"/>
</g>
<!-- AppComponent -->
<g id="node1" class="node">
<title>AppComponent</title>
<polygon fill="#ffffb3" stroke="#000000" points="1132.9399,-122 1027.0601,-122 1027.0601,-86 1132.9399,-86 1132.9399,-122"/>
<text text-anchor="middle" x="1080" y="-99.8" font-family="Times,serif" font-size="14.00" fill="#000000">AppComponent</text>
</g>
<!-- AppModule -->
<g id="node5" class="node">
<title>AppModule</title>
<polygon fill="#8dd3c7" stroke="#000000" points="662.6571,-187 659.6571,-191 638.6571,-191 635.6571,-187 579.3429,-187 579.3429,-151 662.6571,-151 662.6571,-187"/>
<text text-anchor="middle" x="621" y="-164.8" font-family="Times,serif" font-size="14.00" fill="#000000">AppModule</text>
</g>
<!-- AppComponent&#45;&gt;AppModule -->
<g id="edge1" class="edge">
<title>AppComponent&#45;&gt;AppModule</title>
<path fill="none" stroke="#000000" d="M1080,-122.2921C1080,-144.2057 1080,-178 1080,-178 1080,-178 672.95,-178 672.95,-178"/>
<polygon fill="#000000" stroke="#000000" points="672.95,-174.5001 662.95,-178 672.95,-181.5001 672.95,-174.5001"/>
</g>
<!-- EmployeeformComponent -->
<g id="node2" class="node">
<title>EmployeeformComponent</title>
<polygon fill="#ffffb3" stroke="#000000" points="1009.8075,-122 844.1925,-122 844.1925,-86 1009.8075,-86 1009.8075,-122"/>
<text text-anchor="middle" x="927" y="-99.8" font-family="Times,serif" font-size="14.00" fill="#000000">EmployeeformComponent</text>
</g>
<!-- EmployeeformComponent&#45;&gt;AppModule -->
<g id="edge2" class="edge">
<title>EmployeeformComponent&#45;&gt;AppModule</title>
<path fill="none" stroke="#000000" d="M927,-122.1061C927,-141.3391 927,-169 927,-169 927,-169 672.9064,-169 672.9064,-169"/>
<polygon fill="#000000" stroke="#000000" points="672.9064,-165.5001 662.9064,-169 672.9063,-172.5001 672.9064,-165.5001"/>
</g>
<!-- OnlynumberDirective -->
<g id="node3" class="node">
<title>OnlynumberDirective</title>
<polygon fill="#ffffb3" stroke="#000000" points="826.3459,-122 687.6541,-122 687.6541,-86 826.3459,-86 826.3459,-122"/>
<text text-anchor="middle" x="757" y="-99.8" font-family="Times,serif" font-size="14.00" fill="#000000">OnlynumberDirective</text>
</g>
<!-- OnlynumberDirective&#45;&gt;AppModule -->
<g id="edge3" class="edge">
<title>OnlynumberDirective&#45;&gt;AppModule</title>
<path fill="none" stroke="#000000" d="M757,-122.027C757,-138.3976 757,-160 757,-160 757,-160 672.9142,-160 672.9142,-160"/>
<polygon fill="#000000" stroke="#000000" points="672.9142,-156.5001 662.9142,-160 672.9142,-163.5001 672.9142,-156.5001"/>
</g>
<!-- datestampPipe -->
<g id="node4" class="node">
<title>datestampPipe</title>
<polygon fill="#ffffb3" stroke="#000000" points="669.6486,-122 572.3514,-122 572.3514,-86 669.6486,-86 669.6486,-122"/>
<text text-anchor="middle" x="621" y="-99.8" font-family="Times,serif" font-size="14.00" fill="#000000">datestampPipe</text>
</g>
<!-- datestampPipe&#45;&gt;AppModule -->
<g id="edge4" class="edge">
<title>datestampPipe&#45;&gt;AppModule</title>
<path fill="none" stroke="#000000" d="M621,-122.1061C621,-122.1061 621,-140.991 621,-140.991"/>
<polygon fill="#000000" stroke="#000000" points="617.5001,-140.9909 621,-150.991 624.5001,-140.991 617.5001,-140.9909"/>
</g>
<!-- AppComponent  -->
<g id="node7" class="node">
<title>AppComponent </title>
<polygon fill="#80b1d3" stroke="#000000" points="675.439,-252 566.561,-252 566.561,-216 675.439,-216 675.439,-252"/>
<text text-anchor="middle" x="621" y="-229.8" font-family="Times,serif" font-size="14.00" fill="#000000">AppComponent </text>
</g>
<!-- AppModule&#45;&gt;AppComponent  -->
<g id="edge6" class="edge">
<title>AppModule&#45;&gt;AppComponent </title>
<path fill="none" stroke="#000000" stroke-dasharray="1,5" d="M621,-187.1061C621,-187.1061 621,-205.991 621,-205.991"/>
<polygon fill="#000000" stroke="#000000" points="617.5001,-205.9909 621,-215.991 624.5001,-205.991 617.5001,-205.9909"/>
</g>
<!-- AppRoutingModule -->
<g id="node6" class="node">
<title>AppRoutingModule</title>
<polygon fill="#8dd3c7" stroke="#000000" points="548.2744,-122 545.2744,-126 524.2744,-126 521.2744,-122 419.7256,-122 419.7256,-86 548.2744,-86 548.2744,-122"/>
<text text-anchor="middle" x="484" y="-99.8" font-family="Times,serif" font-size="14.00" fill="#000000">AppRoutingModule</text>
</g>
<!-- AppRoutingModule&#45;&gt;AppModule -->
<g id="edge5" class="edge">
<title>AppRoutingModule&#45;&gt;AppModule</title>
<path fill="none" stroke="#000000" d="M484,-122.027C484,-138.3976 484,-160 484,-160 484,-160 569.1511,-160 569.1511,-160"/>
<polygon fill="#000000" stroke="#000000" points="569.1511,-163.5001 579.1511,-160 569.151,-156.5001 569.1511,-163.5001"/>
</g>
<!-- GlobalErrorHandlerService -->
<g id="node8" class="node">
<title>GlobalErrorHandlerService</title>
<ellipse fill="#fdb462" stroke="#000000" cx="278" cy="-104" rx="117.9939" ry="18"/>
<text text-anchor="middle" x="278" y="-99.8" font-family="Times,serif" font-size="14.00" fill="#000000">GlobalErrorHandlerService</text>
</g>
<!-- GlobalErrorHandlerService&#45;&gt;AppModule -->
<g id="edge7" class="edge">
<title>GlobalErrorHandlerService&#45;&gt;AppModule</title>
<path fill="none" stroke="#000000" d="M278,-122.1061C278,-141.3391 278,-169 278,-169 278,-169 569.2844,-169 569.2844,-169"/>
<polygon fill="#000000" stroke="#000000" points="569.2844,-172.5001 579.2844,-169 569.2843,-165.5001 569.2844,-172.5001"/>
</g>
<!-- serviceClass -->
<g id="node9" class="node">
<title>serviceClass</title>
<ellipse fill="#fdb462" stroke="#000000" cx="83" cy="-104" rx="59.1026" ry="18"/>
<text text-anchor="middle" x="83" y="-99.8" font-family="Times,serif" font-size="14.00" fill="#000000">serviceClass</text>
</g>
<!-- serviceClass&#45;&gt;AppModule -->
<g id="edge8" class="edge">
<title>serviceClass&#45;&gt;AppModule</title>
<path fill="none" stroke="#000000" d="M83,-122.2921C83,-144.2057 83,-178 83,-178 83,-178 569.2317,-178 569.2317,-178"/>
<polygon fill="#000000" stroke="#000000" points="569.2318,-181.5001 579.2317,-178 569.2317,-174.5001 569.2318,-181.5001"/>
</g>
</g>
</svg>
